<mxfile host="app.diagrams.net" agent="Mozilla/5.0 (Windows NT 10.0; Win64; x64; rv:137.0) Gecko/20100101 Firefox/137.0" version="26.2.14">
  <diagram name="Page-1" id="zWhLEK9Pwo0xhZoRzAsr">
    <mxGraphModel grid="1" page="1" gridSize="10" guides="1" tooltips="1" connect="1" arrows="1" fold="1" pageScale="1" pageWidth="850" pageHeight="1100" math="0" shadow="0">
      <root>
        <mxCell id="0" />
        <mxCell id="1" parent="0" />
        <mxCell id="ALfVOslOlbPku7FaXqLe-3" style="edgeStyle=orthogonalEdgeStyle;rounded=0;orthogonalLoop=1;jettySize=auto;html=1;entryX=0.5;entryY=0;entryDx=0;entryDy=0;" edge="1" parent="1" source="ALfVOslOlbPku7FaXqLe-1" target="ALfVOslOlbPku7FaXqLe-2">
          <mxGeometry relative="1" as="geometry" />
        </mxCell>
        <mxCell id="ALfVOslOlbPku7FaXqLe-1" value="Application Start" style="ellipse;whiteSpace=wrap;html=1;" vertex="1" parent="1">
          <mxGeometry x="360" width="120" height="80" as="geometry" />
        </mxCell>
        <mxCell id="ALfVOslOlbPku7FaXqLe-18" style="edgeStyle=orthogonalEdgeStyle;rounded=0;orthogonalLoop=1;jettySize=auto;html=1;entryX=0.5;entryY=0;entryDx=0;entryDy=0;" edge="1" parent="1" source="ALfVOslOlbPku7FaXqLe-2" target="ALfVOslOlbPku7FaXqLe-4">
          <mxGeometry relative="1" as="geometry" />
        </mxCell>
        <mxCell id="ALfVOslOlbPku7FaXqLe-2" value="Main Menu" style="rounded=0;whiteSpace=wrap;html=1;" vertex="1" parent="1">
          <mxGeometry x="360" y="190" width="120" height="60" as="geometry" />
        </mxCell>
        <mxCell id="ALfVOslOlbPku7FaXqLe-5" style="edgeStyle=orthogonalEdgeStyle;rounded=0;orthogonalLoop=1;jettySize=auto;html=1;entryX=0.5;entryY=0;entryDx=0;entryDy=0;" edge="1" parent="1" target="ALfVOslOlbPku7FaXqLe-13">
          <mxGeometry relative="1" as="geometry">
            <mxPoint x="-360" y="570" as="targetPoint" />
            <mxPoint x="362.5" y="420" as="sourcePoint" />
            <Array as="points">
              <mxPoint x="363" y="421" />
              <mxPoint x="-450" y="421" />
            </Array>
          </mxGeometry>
        </mxCell>
        <mxCell id="ALfVOslOlbPku7FaXqLe-17" style="edgeStyle=orthogonalEdgeStyle;rounded=0;orthogonalLoop=1;jettySize=auto;html=1;entryX=0.5;entryY=0;entryDx=0;entryDy=0;" edge="1" parent="1" source="ALfVOslOlbPku7FaXqLe-4" target="ALfVOslOlbPku7FaXqLe-15">
          <mxGeometry relative="1" as="geometry" />
        </mxCell>
        <mxCell id="ALfVOslOlbPku7FaXqLe-19" style="edgeStyle=orthogonalEdgeStyle;rounded=0;orthogonalLoop=1;jettySize=auto;html=1;entryX=0.5;entryY=0;entryDx=0;entryDy=0;" edge="1" parent="1" source="ALfVOslOlbPku7FaXqLe-4" target="ALfVOslOlbPku7FaXqLe-14">
          <mxGeometry relative="1" as="geometry" />
        </mxCell>
        <mxCell id="ALfVOslOlbPku7FaXqLe-23" style="edgeStyle=orthogonalEdgeStyle;rounded=0;orthogonalLoop=1;jettySize=auto;html=1;exitX=1;exitY=0;exitDx=0;exitDy=0;entryX=0.5;entryY=1;entryDx=0;entryDy=0;" edge="1" parent="1" source="ALfVOslOlbPku7FaXqLe-4" target="ALfVOslOlbPku7FaXqLe-21">
          <mxGeometry relative="1" as="geometry" />
        </mxCell>
        <mxCell id="ALfVOslOlbPku7FaXqLe-4" value="Select Role" style="rhombus;whiteSpace=wrap;html=1;" vertex="1" parent="1">
          <mxGeometry x="362.5" y="360" width="115" height="120" as="geometry" />
        </mxCell>
        <mxCell id="ALfVOslOlbPku7FaXqLe-6" value="Selected Manager Role" style="text;html=1;align=center;verticalAlign=middle;whiteSpace=wrap;rounded=0;fontSize=16;" vertex="1" parent="1">
          <mxGeometry x="-80" y="390" width="170" height="30" as="geometry" />
        </mxCell>
        <mxCell id="ALfVOslOlbPku7FaXqLe-9" value="Selected Driver Role" style="text;html=1;align=center;verticalAlign=middle;whiteSpace=wrap;rounded=0;fontSize=16;" vertex="1" parent="1">
          <mxGeometry x="260" y="530" width="150" height="30" as="geometry" />
        </mxCell>
        <mxCell id="ALfVOslOlbPku7FaXqLe-11" value="Selected Client Role" style="text;html=1;align=center;verticalAlign=middle;whiteSpace=wrap;rounded=0;fontSize=14;" vertex="1" parent="1">
          <mxGeometry x="790" y="390" width="150" height="30" as="geometry" />
        </mxCell>
        <mxCell id="ALfVOslOlbPku7FaXqLe-26" style="edgeStyle=orthogonalEdgeStyle;rounded=0;orthogonalLoop=1;jettySize=auto;html=1;entryX=0.5;entryY=0;entryDx=0;entryDy=0;" edge="1" parent="1" source="ALfVOslOlbPku7FaXqLe-13" target="ALfVOslOlbPku7FaXqLe-25">
          <mxGeometry relative="1" as="geometry" />
        </mxCell>
        <mxCell id="ALfVOslOlbPku7FaXqLe-13" value="Manager Login/Registration Menu" style="rounded=0;whiteSpace=wrap;html=1;" vertex="1" parent="1">
          <mxGeometry x="-510" y="610" width="120" height="60" as="geometry" />
        </mxCell>
        <mxCell id="ALfVOslOlbPku7FaXqLe-91" style="edgeStyle=orthogonalEdgeStyle;rounded=0;orthogonalLoop=1;jettySize=auto;html=1;entryX=0.5;entryY=0;entryDx=0;entryDy=0;" edge="1" parent="1" source="ALfVOslOlbPku7FaXqLe-14" target="ALfVOslOlbPku7FaXqLe-90">
          <mxGeometry relative="1" as="geometry" />
        </mxCell>
        <mxCell id="ALfVOslOlbPku7FaXqLe-14" value="Driver Login Menu" style="rounded=0;whiteSpace=wrap;html=1;" vertex="1" parent="1">
          <mxGeometry x="360" y="610" width="120" height="60" as="geometry" />
        </mxCell>
        <mxCell id="ALfVOslOlbPku7FaXqLe-149" style="edgeStyle=orthogonalEdgeStyle;rounded=0;orthogonalLoop=1;jettySize=auto;html=1;entryX=0.5;entryY=0;entryDx=0;entryDy=0;" edge="1" parent="1" source="ALfVOslOlbPku7FaXqLe-15" target="ALfVOslOlbPku7FaXqLe-115">
          <mxGeometry relative="1" as="geometry" />
        </mxCell>
        <mxCell id="ALfVOslOlbPku7FaXqLe-15" value="Client Login/Registration Menu" style="rounded=0;whiteSpace=wrap;html=1;" vertex="1" parent="1">
          <mxGeometry x="1175" y="610" width="120" height="60" as="geometry" />
        </mxCell>
        <mxCell id="ALfVOslOlbPku7FaXqLe-21" value="Exit" style="ellipse;whiteSpace=wrap;html=1;" vertex="1" parent="1">
          <mxGeometry x="580" y="220" width="120" height="80" as="geometry" />
        </mxCell>
        <mxCell id="ALfVOslOlbPku7FaXqLe-24" value="Selected Exit" style="text;html=1;align=center;verticalAlign=middle;whiteSpace=wrap;rounded=0;" vertex="1" parent="1">
          <mxGeometry x="500" y="360" width="80" height="30" as="geometry" />
        </mxCell>
        <mxCell id="ALfVOslOlbPku7FaXqLe-28" style="edgeStyle=orthogonalEdgeStyle;rounded=0;orthogonalLoop=1;jettySize=auto;html=1;entryX=0.5;entryY=0;entryDx=0;entryDy=0;" edge="1" parent="1" source="ALfVOslOlbPku7FaXqLe-25" target="ALfVOslOlbPku7FaXqLe-27">
          <mxGeometry relative="1" as="geometry" />
        </mxCell>
        <mxCell id="ALfVOslOlbPku7FaXqLe-39" style="edgeStyle=orthogonalEdgeStyle;rounded=0;orthogonalLoop=1;jettySize=auto;html=1;entryX=0.5;entryY=0;entryDx=0;entryDy=0;" edge="1" parent="1" source="ALfVOslOlbPku7FaXqLe-25" target="ALfVOslOlbPku7FaXqLe-38">
          <mxGeometry relative="1" as="geometry" />
        </mxCell>
        <mxCell id="ALfVOslOlbPku7FaXqLe-85" style="edgeStyle=orthogonalEdgeStyle;rounded=0;orthogonalLoop=1;jettySize=auto;html=1;exitX=1;exitY=0;exitDx=0;exitDy=0;entryX=0;entryY=1;entryDx=0;entryDy=0;" edge="1" parent="1" source="ALfVOslOlbPku7FaXqLe-25" target="ALfVOslOlbPku7FaXqLe-4">
          <mxGeometry relative="1" as="geometry">
            <Array as="points">
              <mxPoint x="-417" y="865" />
              <mxPoint y="865" />
              <mxPoint y="450" />
            </Array>
          </mxGeometry>
        </mxCell>
        <mxCell id="ALfVOslOlbPku7FaXqLe-25" value="Select Login/Registration Option" style="rhombus;whiteSpace=wrap;html=1;" vertex="1" parent="1">
          <mxGeometry x="-515" y="800" width="130" height="130" as="geometry" />
        </mxCell>
        <mxCell id="ALfVOslOlbPku7FaXqLe-31" style="edgeStyle=orthogonalEdgeStyle;rounded=0;orthogonalLoop=1;jettySize=auto;html=1;entryX=0.5;entryY=0;entryDx=0;entryDy=0;" edge="1" parent="1" source="ALfVOslOlbPku7FaXqLe-27" target="ALfVOslOlbPku7FaXqLe-30">
          <mxGeometry relative="1" as="geometry" />
        </mxCell>
        <mxCell id="ALfVOslOlbPku7FaXqLe-27" value="Prompt Login Info" style="rounded=0;whiteSpace=wrap;html=1;" vertex="1" parent="1">
          <mxGeometry x="-930" y="960" width="120" height="60" as="geometry" />
        </mxCell>
        <mxCell id="ALfVOslOlbPku7FaXqLe-29" value="Selected Login Option" style="text;html=1;align=center;verticalAlign=middle;whiteSpace=wrap;rounded=0;fontSize=17;" vertex="1" parent="1">
          <mxGeometry x="-730" y="840" width="180" height="30" as="geometry" />
        </mxCell>
        <mxCell id="ALfVOslOlbPku7FaXqLe-35" style="edgeStyle=orthogonalEdgeStyle;rounded=0;orthogonalLoop=1;jettySize=auto;html=1;entryX=0.5;entryY=0;entryDx=0;entryDy=0;" edge="1" parent="1" source="ALfVOslOlbPku7FaXqLe-30">
          <mxGeometry relative="1" as="geometry">
            <mxPoint x="-870" y="1250" as="targetPoint" />
          </mxGeometry>
        </mxCell>
        <mxCell id="ALfVOslOlbPku7FaXqLe-30" value="Login Information" style="shape=parallelogram;perimeter=parallelogramPerimeter;whiteSpace=wrap;html=1;fixedSize=1;" vertex="1" parent="1">
          <mxGeometry x="-930" y="1100" width="120" height="60" as="geometry" />
        </mxCell>
        <mxCell id="ALfVOslOlbPku7FaXqLe-41" style="edgeStyle=orthogonalEdgeStyle;rounded=0;orthogonalLoop=1;jettySize=auto;html=1;entryX=0.5;entryY=0;entryDx=0;entryDy=0;" edge="1" parent="1" source="ALfVOslOlbPku7FaXqLe-38" target="ALfVOslOlbPku7FaXqLe-40">
          <mxGeometry relative="1" as="geometry" />
        </mxCell>
        <mxCell id="ALfVOslOlbPku7FaXqLe-38" value="Prompt Registration Info" style="rounded=0;whiteSpace=wrap;html=1;" vertex="1" parent="1">
          <mxGeometry x="-510" y="980" width="120" height="60" as="geometry" />
        </mxCell>
        <mxCell id="ALfVOslOlbPku7FaXqLe-53" style="edgeStyle=orthogonalEdgeStyle;rounded=0;orthogonalLoop=1;jettySize=auto;html=1;" edge="1" parent="1" source="ALfVOslOlbPku7FaXqLe-40">
          <mxGeometry relative="1" as="geometry">
            <mxPoint x="-450" y="1240" as="targetPoint" />
          </mxGeometry>
        </mxCell>
        <mxCell id="ALfVOslOlbPku7FaXqLe-40" value="Registration Info" style="shape=parallelogram;perimeter=parallelogramPerimeter;whiteSpace=wrap;html=1;fixedSize=1;" vertex="1" parent="1">
          <mxGeometry x="-510" y="1100" width="120" height="60" as="geometry" />
        </mxCell>
        <mxCell id="ALfVOslOlbPku7FaXqLe-49" value="Manager Main Menu" style="rounded=0;whiteSpace=wrap;html=1;" vertex="1" parent="1">
          <mxGeometry x="-800" y="2030" width="120" height="60" as="geometry" />
        </mxCell>
        <mxCell id="ALfVOslOlbPku7FaXqLe-62" style="edgeStyle=orthogonalEdgeStyle;rounded=0;orthogonalLoop=1;jettySize=auto;html=1;entryX=0.5;entryY=0;entryDx=0;entryDy=0;" edge="1" parent="1" source="ALfVOslOlbPku7FaXqLe-60" target="ALfVOslOlbPku7FaXqLe-61">
          <mxGeometry relative="1" as="geometry" />
        </mxCell>
        <mxCell id="ALfVOslOlbPku7FaXqLe-60" value="Parse Login Info" style="rounded=0;whiteSpace=wrap;html=1;" vertex="1" parent="1">
          <mxGeometry x="-930" y="1250" width="120" height="60" as="geometry" />
        </mxCell>
        <mxCell id="ALfVOslOlbPku7FaXqLe-64" style="edgeStyle=orthogonalEdgeStyle;rounded=0;orthogonalLoop=1;jettySize=auto;html=1;entryX=0.5;entryY=0;entryDx=0;entryDy=0;" edge="1" parent="1" source="ALfVOslOlbPku7FaXqLe-61" target="ALfVOslOlbPku7FaXqLe-65">
          <mxGeometry relative="1" as="geometry">
            <mxPoint x="-870" y="1540" as="targetPoint" />
          </mxGeometry>
        </mxCell>
        <mxCell id="ALfVOslOlbPku7FaXqLe-67" style="edgeStyle=orthogonalEdgeStyle;rounded=0;orthogonalLoop=1;jettySize=auto;html=1;entryX=0;entryY=1;entryDx=0;entryDy=0;" edge="1" parent="1" source="ALfVOslOlbPku7FaXqLe-61" target="ALfVOslOlbPku7FaXqLe-25">
          <mxGeometry relative="1" as="geometry">
            <Array as="points">
              <mxPoint x="-660" y="1415" />
              <mxPoint x="-660" y="898" />
            </Array>
          </mxGeometry>
        </mxCell>
        <mxCell id="ALfVOslOlbPku7FaXqLe-61" value="Parse Success?" style="rhombus;whiteSpace=wrap;html=1;fontSize=12;align=center;verticalAlign=middle;labelBorderColor=none;textShadow=0;" vertex="1" parent="1">
          <mxGeometry x="-935" y="1350" width="130" height="130" as="geometry" />
        </mxCell>
        <mxCell id="ALfVOslOlbPku7FaXqLe-73" style="edgeStyle=orthogonalEdgeStyle;rounded=0;orthogonalLoop=1;jettySize=auto;html=1;entryX=0;entryY=0.5;entryDx=0;entryDy=0;" edge="1" parent="1" source="ALfVOslOlbPku7FaXqLe-65" target="ALfVOslOlbPku7FaXqLe-49">
          <mxGeometry relative="1" as="geometry">
            <Array as="points">
              <mxPoint x="-870" y="2060" />
            </Array>
          </mxGeometry>
        </mxCell>
        <mxCell id="ALfVOslOlbPku7FaXqLe-65" value="Manager Exists?" style="rhombus;whiteSpace=wrap;html=1;fontSize=11;" vertex="1" parent="1">
          <mxGeometry x="-930" y="1600" width="120" height="120" as="geometry" />
        </mxCell>
        <mxCell id="ALfVOslOlbPku7FaXqLe-68" value="No" style="text;html=1;align=center;verticalAlign=middle;whiteSpace=wrap;rounded=0;fontSize=16;" vertex="1" parent="1">
          <mxGeometry x="-770" y="1390" width="60" height="30" as="geometry" />
        </mxCell>
        <mxCell id="ALfVOslOlbPku7FaXqLe-69" value="Yes" style="text;html=1;align=center;verticalAlign=middle;whiteSpace=wrap;rounded=0;fontSize=16;" vertex="1" parent="1">
          <mxGeometry x="-920" y="1490" width="60" height="30" as="geometry" />
        </mxCell>
        <mxCell id="ALfVOslOlbPku7FaXqLe-72" value="No" style="text;html=1;align=center;verticalAlign=middle;whiteSpace=wrap;rounded=0;fontSize=16;" vertex="1" parent="1">
          <mxGeometry x="-770" y="1635" width="60" height="30" as="geometry" />
        </mxCell>
        <mxCell id="ALfVOslOlbPku7FaXqLe-74" value="Yes" style="text;html=1;align=center;verticalAlign=middle;whiteSpace=wrap;rounded=0;fontSize=18;" vertex="1" parent="1">
          <mxGeometry x="-920" y="1860" width="60" height="30" as="geometry" />
        </mxCell>
        <mxCell id="ALfVOslOlbPku7FaXqLe-81" style="edgeStyle=orthogonalEdgeStyle;rounded=0;orthogonalLoop=1;jettySize=auto;html=1;entryX=0.5;entryY=0;entryDx=0;entryDy=0;" edge="1" parent="1" source="ALfVOslOlbPku7FaXqLe-75" target="ALfVOslOlbPku7FaXqLe-76">
          <mxGeometry relative="1" as="geometry" />
        </mxCell>
        <mxCell id="ALfVOslOlbPku7FaXqLe-75" value="Parse Login Info" style="rounded=0;whiteSpace=wrap;html=1;" vertex="1" parent="1">
          <mxGeometry x="-510" y="1240" width="120" height="60" as="geometry" />
        </mxCell>
        <mxCell id="ALfVOslOlbPku7FaXqLe-221" style="edgeStyle=orthogonalEdgeStyle;rounded=0;orthogonalLoop=1;jettySize=auto;html=1;entryX=1;entryY=0.5;entryDx=0;entryDy=0;" edge="1" parent="1" source="ALfVOslOlbPku7FaXqLe-76" target="ALfVOslOlbPku7FaXqLe-49">
          <mxGeometry relative="1" as="geometry">
            <Array as="points">
              <mxPoint x="-450" y="2060" />
            </Array>
          </mxGeometry>
        </mxCell>
        <mxCell id="ALfVOslOlbPku7FaXqLe-76" value="Parse Success?" style="rhombus;whiteSpace=wrap;html=1;fontSize=12;align=center;verticalAlign=middle;labelBorderColor=none;textShadow=0;" vertex="1" parent="1">
          <mxGeometry x="-515" y="1350" width="130" height="130" as="geometry" />
        </mxCell>
        <mxCell id="ALfVOslOlbPku7FaXqLe-78" value="No" style="text;html=1;align=center;verticalAlign=middle;whiteSpace=wrap;rounded=0;fontSize=16;" vertex="1" parent="1">
          <mxGeometry x="-610" y="1390" width="60" height="30" as="geometry" />
        </mxCell>
        <mxCell id="ALfVOslOlbPku7FaXqLe-80" value="" style="endArrow=none;html=1;rounded=0;" edge="1" parent="1">
          <mxGeometry width="50" height="50" relative="1" as="geometry">
            <mxPoint x="-660" y="1415" as="sourcePoint" />
            <mxPoint x="-515" y="1414.5" as="targetPoint" />
          </mxGeometry>
        </mxCell>
        <mxCell id="ALfVOslOlbPku7FaXqLe-83" value="Yes" style="text;html=1;align=center;verticalAlign=middle;whiteSpace=wrap;rounded=0;fontSize=16;" vertex="1" parent="1">
          <mxGeometry x="-520" y="2020" width="60" height="30" as="geometry" />
        </mxCell>
        <mxCell id="ALfVOslOlbPku7FaXqLe-84" value="Selected Registration Option" style="text;html=1;align=center;verticalAlign=middle;whiteSpace=wrap;rounded=0;fontSize=16;" vertex="1" parent="1">
          <mxGeometry x="-450" y="930" width="210" height="30" as="geometry" />
        </mxCell>
        <mxCell id="ALfVOslOlbPku7FaXqLe-87" value="Selected Exit Option" style="text;html=1;align=center;verticalAlign=middle;whiteSpace=wrap;rounded=0;fontSize=17;" vertex="1" parent="1">
          <mxGeometry x="-340" y="840" width="180" height="30" as="geometry" />
        </mxCell>
        <mxCell id="ALfVOslOlbPku7FaXqLe-88" value="" style="endArrow=none;html=1;rounded=0;exitX=1;exitY=0.5;exitDx=0;exitDy=0;" edge="1" parent="1" source="ALfVOslOlbPku7FaXqLe-65">
          <mxGeometry width="50" height="50" relative="1" as="geometry">
            <mxPoint x="-760" y="1700" as="sourcePoint" />
            <mxPoint x="-660" y="1420" as="targetPoint" />
            <Array as="points">
              <mxPoint x="-660" y="1660" />
            </Array>
          </mxGeometry>
        </mxCell>
        <mxCell id="ALfVOslOlbPku7FaXqLe-98" style="edgeStyle=orthogonalEdgeStyle;rounded=0;orthogonalLoop=1;jettySize=auto;html=1;entryX=0.5;entryY=0;entryDx=0;entryDy=0;" edge="1" parent="1" source="ALfVOslOlbPku7FaXqLe-89" target="ALfVOslOlbPku7FaXqLe-95">
          <mxGeometry relative="1" as="geometry" />
        </mxCell>
        <mxCell id="ALfVOslOlbPku7FaXqLe-89" value="Parse Login Info" style="rounded=0;whiteSpace=wrap;html=1;" vertex="1" parent="1">
          <mxGeometry x="360" y="980" width="120" height="60" as="geometry" />
        </mxCell>
        <mxCell id="ALfVOslOlbPku7FaXqLe-94" style="edgeStyle=orthogonalEdgeStyle;rounded=0;orthogonalLoop=1;jettySize=auto;html=1;entryX=0.5;entryY=0;entryDx=0;entryDy=0;" edge="1" parent="1" source="ALfVOslOlbPku7FaXqLe-90" target="ALfVOslOlbPku7FaXqLe-89">
          <mxGeometry relative="1" as="geometry" />
        </mxCell>
        <mxCell id="ALfVOslOlbPku7FaXqLe-90" value="Login Menu Options" style="rhombus;whiteSpace=wrap;html=1;" vertex="1" parent="1">
          <mxGeometry x="355" y="800" width="130" height="130" as="geometry" />
        </mxCell>
        <mxCell id="ALfVOslOlbPku7FaXqLe-92" value="" style="endArrow=none;html=1;rounded=0;entryX=0;entryY=0.5;entryDx=0;entryDy=0;" edge="1" parent="1" target="ALfVOslOlbPku7FaXqLe-90">
          <mxGeometry width="50" height="50" relative="1" as="geometry">
            <mxPoint x="-80" y="864.58" as="sourcePoint" />
            <mxPoint x="370" y="864.58" as="targetPoint" />
          </mxGeometry>
        </mxCell>
        <mxCell id="ALfVOslOlbPku7FaXqLe-99" style="edgeStyle=orthogonalEdgeStyle;rounded=0;orthogonalLoop=1;jettySize=auto;html=1;entryX=1;entryY=0.5;entryDx=0;entryDy=0;" edge="1" parent="1" source="ALfVOslOlbPku7FaXqLe-95" target="ALfVOslOlbPku7FaXqLe-14">
          <mxGeometry relative="1" as="geometry">
            <Array as="points">
              <mxPoint x="560" y="1140" />
              <mxPoint x="560" y="640" />
            </Array>
          </mxGeometry>
        </mxCell>
        <mxCell id="ALfVOslOlbPku7FaXqLe-102" style="edgeStyle=orthogonalEdgeStyle;rounded=0;orthogonalLoop=1;jettySize=auto;html=1;entryX=0.5;entryY=0;entryDx=0;entryDy=0;" edge="1" parent="1" source="ALfVOslOlbPku7FaXqLe-95" target="ALfVOslOlbPku7FaXqLe-101">
          <mxGeometry relative="1" as="geometry" />
        </mxCell>
        <mxCell id="ALfVOslOlbPku7FaXqLe-95" value="Parse Success?" style="rhombus;whiteSpace=wrap;html=1;" vertex="1" parent="1">
          <mxGeometry x="370" y="1090" width="100" height="100" as="geometry" />
        </mxCell>
        <mxCell id="ALfVOslOlbPku7FaXqLe-100" value="No" style="text;html=1;align=center;verticalAlign=middle;whiteSpace=wrap;rounded=0;fontSize=16;" vertex="1" parent="1">
          <mxGeometry x="477.5" y="1110" width="60" height="30" as="geometry" />
        </mxCell>
        <mxCell id="ALfVOslOlbPku7FaXqLe-164" style="edgeStyle=orthogonalEdgeStyle;rounded=0;orthogonalLoop=1;jettySize=auto;html=1;entryX=0.5;entryY=0;entryDx=0;entryDy=0;" edge="1" parent="1" source="ALfVOslOlbPku7FaXqLe-101" target="ALfVOslOlbPku7FaXqLe-163">
          <mxGeometry relative="1" as="geometry" />
        </mxCell>
        <mxCell id="ALfVOslOlbPku7FaXqLe-101" value="Driver Main Menu" style="rounded=0;whiteSpace=wrap;html=1;" vertex="1" parent="1">
          <mxGeometry x="360" y="1250" width="120" height="60" as="geometry" />
        </mxCell>
        <mxCell id="ALfVOslOlbPku7FaXqLe-103" value="Yes" style="text;html=1;align=center;verticalAlign=middle;whiteSpace=wrap;rounded=0;fontSize=16;" vertex="1" parent="1">
          <mxGeometry x="370" y="1200" width="60" height="30" as="geometry" />
        </mxCell>
        <mxCell id="ALfVOslOlbPku7FaXqLe-113" style="edgeStyle=orthogonalEdgeStyle;rounded=0;orthogonalLoop=1;jettySize=auto;html=1;entryX=0.5;entryY=0;entryDx=0;entryDy=0;" edge="1" parent="1" source="ALfVOslOlbPku7FaXqLe-115" target="ALfVOslOlbPku7FaXqLe-117">
          <mxGeometry relative="1" as="geometry" />
        </mxCell>
        <mxCell id="ALfVOslOlbPku7FaXqLe-114" style="edgeStyle=orthogonalEdgeStyle;rounded=0;orthogonalLoop=1;jettySize=auto;html=1;entryX=0.5;entryY=0;entryDx=0;entryDy=0;" edge="1" parent="1" source="ALfVOslOlbPku7FaXqLe-115" target="ALfVOslOlbPku7FaXqLe-122">
          <mxGeometry relative="1" as="geometry" />
        </mxCell>
        <mxCell id="ALfVOslOlbPku7FaXqLe-152" style="edgeStyle=orthogonalEdgeStyle;rounded=0;orthogonalLoop=1;jettySize=auto;html=1;entryX=1;entryY=1;entryDx=0;entryDy=0;" edge="1" parent="1" source="ALfVOslOlbPku7FaXqLe-115" target="ALfVOslOlbPku7FaXqLe-4">
          <mxGeometry relative="1" as="geometry">
            <Array as="points">
              <mxPoint x="850" y="865" />
              <mxPoint x="850" y="450" />
            </Array>
          </mxGeometry>
        </mxCell>
        <mxCell id="ALfVOslOlbPku7FaXqLe-115" value="Select Login/Registration Option" style="rhombus;whiteSpace=wrap;html=1;" vertex="1" parent="1">
          <mxGeometry x="1170" y="800" width="130" height="130" as="geometry" />
        </mxCell>
        <mxCell id="ALfVOslOlbPku7FaXqLe-116" style="edgeStyle=orthogonalEdgeStyle;rounded=0;orthogonalLoop=1;jettySize=auto;html=1;entryX=0.5;entryY=0;entryDx=0;entryDy=0;" edge="1" parent="1" source="ALfVOslOlbPku7FaXqLe-117" target="ALfVOslOlbPku7FaXqLe-120">
          <mxGeometry relative="1" as="geometry" />
        </mxCell>
        <mxCell id="ALfVOslOlbPku7FaXqLe-117" value="Prompt Login Info" style="rounded=0;whiteSpace=wrap;html=1;" vertex="1" parent="1">
          <mxGeometry x="1580" y="980" width="120" height="60" as="geometry" />
        </mxCell>
        <mxCell id="ALfVOslOlbPku7FaXqLe-147" style="edgeStyle=orthogonalEdgeStyle;rounded=0;orthogonalLoop=1;jettySize=auto;html=1;entryX=0.5;entryY=0;entryDx=0;entryDy=0;" edge="1" parent="1" source="ALfVOslOlbPku7FaXqLe-120" target="ALfVOslOlbPku7FaXqLe-127">
          <mxGeometry relative="1" as="geometry" />
        </mxCell>
        <mxCell id="ALfVOslOlbPku7FaXqLe-120" value="Login Information" style="shape=parallelogram;perimeter=parallelogramPerimeter;whiteSpace=wrap;html=1;fixedSize=1;" vertex="1" parent="1">
          <mxGeometry x="1580" y="1100" width="120" height="60" as="geometry" />
        </mxCell>
        <mxCell id="ALfVOslOlbPku7FaXqLe-121" style="edgeStyle=orthogonalEdgeStyle;rounded=0;orthogonalLoop=1;jettySize=auto;html=1;entryX=0.5;entryY=0;entryDx=0;entryDy=0;" edge="1" parent="1" source="ALfVOslOlbPku7FaXqLe-122" target="ALfVOslOlbPku7FaXqLe-124">
          <mxGeometry relative="1" as="geometry" />
        </mxCell>
        <mxCell id="ALfVOslOlbPku7FaXqLe-122" value="Prompt Registration Info" style="rounded=0;whiteSpace=wrap;html=1;" vertex="1" parent="1">
          <mxGeometry x="1175" y="980" width="120" height="60" as="geometry" />
        </mxCell>
        <mxCell id="ALfVOslOlbPku7FaXqLe-123" style="edgeStyle=orthogonalEdgeStyle;rounded=0;orthogonalLoop=1;jettySize=auto;html=1;" edge="1" parent="1" source="ALfVOslOlbPku7FaXqLe-124">
          <mxGeometry relative="1" as="geometry">
            <mxPoint x="1235" y="1240" as="targetPoint" />
          </mxGeometry>
        </mxCell>
        <mxCell id="ALfVOslOlbPku7FaXqLe-124" value="Registration Info" style="shape=parallelogram;perimeter=parallelogramPerimeter;whiteSpace=wrap;html=1;fixedSize=1;" vertex="1" parent="1">
          <mxGeometry x="1175" y="1100" width="120" height="60" as="geometry" />
        </mxCell>
        <mxCell id="ALfVOslOlbPku7FaXqLe-125" value="Client Main Menu" style="rounded=0;whiteSpace=wrap;html=1;" vertex="1" parent="1">
          <mxGeometry x="1175" y="1830" width="120" height="60" as="geometry" />
        </mxCell>
        <mxCell id="ALfVOslOlbPku7FaXqLe-126" style="edgeStyle=orthogonalEdgeStyle;rounded=0;orthogonalLoop=1;jettySize=auto;html=1;entryX=0.5;entryY=0;entryDx=0;entryDy=0;" edge="1" parent="1" source="ALfVOslOlbPku7FaXqLe-127" target="ALfVOslOlbPku7FaXqLe-130">
          <mxGeometry relative="1" as="geometry" />
        </mxCell>
        <mxCell id="ALfVOslOlbPku7FaXqLe-127" value="Parse Login Info" style="rounded=0;whiteSpace=wrap;html=1;" vertex="1" parent="1">
          <mxGeometry x="1580" y="1240" width="120" height="60" as="geometry" />
        </mxCell>
        <mxCell id="ALfVOslOlbPku7FaXqLe-128" style="edgeStyle=orthogonalEdgeStyle;rounded=0;orthogonalLoop=1;jettySize=auto;html=1;entryX=0.5;entryY=0;entryDx=0;entryDy=0;" edge="1" parent="1" source="ALfVOslOlbPku7FaXqLe-130" target="ALfVOslOlbPku7FaXqLe-132">
          <mxGeometry relative="1" as="geometry">
            <mxPoint x="1640" y="1540" as="targetPoint" />
          </mxGeometry>
        </mxCell>
        <mxCell id="ALfVOslOlbPku7FaXqLe-150" style="edgeStyle=orthogonalEdgeStyle;rounded=0;orthogonalLoop=1;jettySize=auto;html=1;entryX=1;entryY=1;entryDx=0;entryDy=0;" edge="1" parent="1" source="ALfVOslOlbPku7FaXqLe-130" target="ALfVOslOlbPku7FaXqLe-115">
          <mxGeometry relative="1" as="geometry">
            <Array as="points">
              <mxPoint x="1440" y="1415" />
              <mxPoint x="1440" y="898" />
            </Array>
          </mxGeometry>
        </mxCell>
        <mxCell id="ALfVOslOlbPku7FaXqLe-130" value="Parse Success?" style="rhombus;whiteSpace=wrap;html=1;fontSize=12;align=center;verticalAlign=middle;labelBorderColor=none;textShadow=0;" vertex="1" parent="1">
          <mxGeometry x="1575" y="1350" width="130" height="130" as="geometry" />
        </mxCell>
        <mxCell id="ALfVOslOlbPku7FaXqLe-161" style="edgeStyle=orthogonalEdgeStyle;rounded=0;orthogonalLoop=1;jettySize=auto;html=1;entryX=1;entryY=0.5;entryDx=0;entryDy=0;" edge="1" parent="1" source="ALfVOslOlbPku7FaXqLe-132" target="ALfVOslOlbPku7FaXqLe-125">
          <mxGeometry relative="1" as="geometry">
            <Array as="points">
              <mxPoint x="1640" y="1860" />
            </Array>
          </mxGeometry>
        </mxCell>
        <mxCell id="ALfVOslOlbPku7FaXqLe-132" value="Client Exists?" style="rhombus;whiteSpace=wrap;html=1;fontSize=11;" vertex="1" parent="1">
          <mxGeometry x="1580" y="1600" width="120" height="120" as="geometry" />
        </mxCell>
        <mxCell id="ALfVOslOlbPku7FaXqLe-134" value="Yes" style="text;html=1;align=center;verticalAlign=middle;whiteSpace=wrap;rounded=0;fontSize=16;" vertex="1" parent="1">
          <mxGeometry x="1590" y="1530" width="60" height="30" as="geometry" />
        </mxCell>
        <mxCell id="ALfVOslOlbPku7FaXqLe-137" style="edgeStyle=orthogonalEdgeStyle;rounded=0;orthogonalLoop=1;jettySize=auto;html=1;entryX=0.5;entryY=0;entryDx=0;entryDy=0;" edge="1" parent="1" source="ALfVOslOlbPku7FaXqLe-138" target="ALfVOslOlbPku7FaXqLe-140">
          <mxGeometry relative="1" as="geometry" />
        </mxCell>
        <mxCell id="ALfVOslOlbPku7FaXqLe-138" value="Parse Registration Info" style="rounded=0;whiteSpace=wrap;html=1;" vertex="1" parent="1">
          <mxGeometry x="1175" y="1240" width="120" height="60" as="geometry" />
        </mxCell>
        <mxCell id="ALfVOslOlbPku7FaXqLe-139" style="edgeStyle=orthogonalEdgeStyle;rounded=0;orthogonalLoop=1;jettySize=auto;html=1;entryX=0.5;entryY=0;entryDx=0;entryDy=0;" edge="1" parent="1" source="ALfVOslOlbPku7FaXqLe-140" target="ALfVOslOlbPku7FaXqLe-125">
          <mxGeometry relative="1" as="geometry" />
        </mxCell>
        <mxCell id="ALfVOslOlbPku7FaXqLe-140" value="Parse Success?" style="rhombus;whiteSpace=wrap;html=1;fontSize=12;align=center;verticalAlign=middle;labelBorderColor=none;textShadow=0;" vertex="1" parent="1">
          <mxGeometry x="1170" y="1350" width="130" height="130" as="geometry" />
        </mxCell>
        <mxCell id="ALfVOslOlbPku7FaXqLe-151" value="" style="endArrow=none;html=1;rounded=0;exitX=1;exitY=0.5;exitDx=0;exitDy=0;" edge="1" parent="1" source="ALfVOslOlbPku7FaXqLe-140">
          <mxGeometry width="50" height="50" relative="1" as="geometry">
            <mxPoint x="1330" y="1420" as="sourcePoint" />
            <mxPoint x="1440" y="1415" as="targetPoint" />
          </mxGeometry>
        </mxCell>
        <mxCell id="ALfVOslOlbPku7FaXqLe-154" value="No" style="text;html=1;align=center;verticalAlign=middle;whiteSpace=wrap;rounded=0;fontSize=16;" vertex="1" parent="1">
          <mxGeometry x="1330" y="1390" width="60" height="30" as="geometry" />
        </mxCell>
        <mxCell id="ALfVOslOlbPku7FaXqLe-155" value="No" style="text;html=1;align=center;verticalAlign=middle;whiteSpace=wrap;rounded=0;fontSize=16;" vertex="1" parent="1">
          <mxGeometry x="1490" y="1390" width="60" height="30" as="geometry" />
        </mxCell>
        <mxCell id="ALfVOslOlbPku7FaXqLe-156" value="Selected Login Option" style="text;html=1;align=center;verticalAlign=middle;whiteSpace=wrap;rounded=0;fontSize=17;" vertex="1" parent="1">
          <mxGeometry x="1390" y="840" width="180" height="30" as="geometry" />
        </mxCell>
        <mxCell id="ALfVOslOlbPku7FaXqLe-157" value="Selected Exit Option" style="text;html=1;align=center;verticalAlign=middle;whiteSpace=wrap;rounded=0;fontSize=17;" vertex="1" parent="1">
          <mxGeometry x="90" y="840" width="180" height="30" as="geometry" />
        </mxCell>
        <mxCell id="ALfVOslOlbPku7FaXqLe-158" value="Selected Exit Option" style="text;html=1;align=center;verticalAlign=middle;whiteSpace=wrap;rounded=0;fontSize=17;" vertex="1" parent="1">
          <mxGeometry x="920" y="840" width="180" height="30" as="geometry" />
        </mxCell>
        <mxCell id="ALfVOslOlbPku7FaXqLe-159" value="" style="endArrow=none;html=1;rounded=0;" edge="1" parent="1" source="ALfVOslOlbPku7FaXqLe-132">
          <mxGeometry width="50" height="50" relative="1" as="geometry">
            <mxPoint x="1509.2893218813451" y="1710" as="sourcePoint" />
            <mxPoint x="1440" y="1410" as="targetPoint" />
            <Array as="points">
              <mxPoint x="1440" y="1660" />
            </Array>
          </mxGeometry>
        </mxCell>
        <mxCell id="ALfVOslOlbPku7FaXqLe-160" value="No" style="text;html=1;align=center;verticalAlign=middle;whiteSpace=wrap;rounded=0;fontSize=16;" vertex="1" parent="1">
          <mxGeometry x="1490" y="1635" width="60" height="30" as="geometry" />
        </mxCell>
        <mxCell id="ALfVOslOlbPku7FaXqLe-162" value="Yes" style="text;html=1;align=center;verticalAlign=middle;whiteSpace=wrap;rounded=0;fontSize=16;" vertex="1" parent="1">
          <mxGeometry x="1430" y="1830" width="60" height="30" as="geometry" />
        </mxCell>
        <mxCell id="ALfVOslOlbPku7FaXqLe-168" style="edgeStyle=orthogonalEdgeStyle;rounded=0;orthogonalLoop=1;jettySize=auto;html=1;entryX=0.5;entryY=0;entryDx=0;entryDy=0;" edge="1" parent="1" source="ALfVOslOlbPku7FaXqLe-163" target="ALfVOslOlbPku7FaXqLe-165">
          <mxGeometry relative="1" as="geometry" />
        </mxCell>
        <mxCell id="ALfVOslOlbPku7FaXqLe-169" style="edgeStyle=orthogonalEdgeStyle;rounded=0;orthogonalLoop=1;jettySize=auto;html=1;entryX=0.5;entryY=0;entryDx=0;entryDy=0;" edge="1" parent="1" source="ALfVOslOlbPku7FaXqLe-163" target="ALfVOslOlbPku7FaXqLe-166">
          <mxGeometry relative="1" as="geometry" />
        </mxCell>
        <mxCell id="ALfVOslOlbPku7FaXqLe-170" style="edgeStyle=orthogonalEdgeStyle;rounded=0;orthogonalLoop=1;jettySize=auto;html=1;entryX=0.5;entryY=0;entryDx=0;entryDy=0;" edge="1" parent="1" source="ALfVOslOlbPku7FaXqLe-163" target="ALfVOslOlbPku7FaXqLe-167">
          <mxGeometry relative="1" as="geometry" />
        </mxCell>
        <mxCell id="ALfVOslOlbPku7FaXqLe-171" style="edgeStyle=orthogonalEdgeStyle;rounded=0;orthogonalLoop=1;jettySize=auto;html=1;exitX=0;exitY=0;exitDx=0;exitDy=0;entryX=0;entryY=1;entryDx=0;entryDy=0;" edge="1" parent="1" source="ALfVOslOlbPku7FaXqLe-163" target="ALfVOslOlbPku7FaXqLe-90">
          <mxGeometry relative="1" as="geometry">
            <Array as="points">
              <mxPoint x="250" y="1388" />
              <mxPoint x="250" y="898" />
            </Array>
          </mxGeometry>
        </mxCell>
        <mxCell id="ALfVOslOlbPku7FaXqLe-163" value="Driver Options" style="rhombus;whiteSpace=wrap;html=1;" vertex="1" parent="1">
          <mxGeometry x="365" y="1360" width="110" height="110" as="geometry" />
        </mxCell>
        <mxCell id="ALfVOslOlbPku7FaXqLe-180" style="edgeStyle=orthogonalEdgeStyle;rounded=0;orthogonalLoop=1;jettySize=auto;html=1;entryX=0.5;entryY=0;entryDx=0;entryDy=0;" edge="1" parent="1" source="ALfVOslOlbPku7FaXqLe-165" target="ALfVOslOlbPku7FaXqLe-176">
          <mxGeometry relative="1" as="geometry" />
        </mxCell>
        <mxCell id="ALfVOslOlbPku7FaXqLe-165" value="Set Address" style="rounded=0;whiteSpace=wrap;html=1;" vertex="1" parent="1">
          <mxGeometry x="160" y="1680" width="120" height="50" as="geometry" />
        </mxCell>
        <mxCell id="ALfVOslOlbPku7FaXqLe-179" style="edgeStyle=orthogonalEdgeStyle;rounded=0;orthogonalLoop=1;jettySize=auto;html=1;entryX=0.5;entryY=0;entryDx=0;entryDy=0;" edge="1" parent="1" source="ALfVOslOlbPku7FaXqLe-166" target="ALfVOslOlbPku7FaXqLe-178">
          <mxGeometry relative="1" as="geometry" />
        </mxCell>
        <mxCell id="ALfVOslOlbPku7FaXqLe-166" value="List all car models" style="rounded=0;whiteSpace=wrap;html=1;" vertex="1" parent="1">
          <mxGeometry x="360" y="1680" width="120" height="50" as="geometry" />
        </mxCell>
        <mxCell id="ALfVOslOlbPku7FaXqLe-192" style="edgeStyle=orthogonalEdgeStyle;rounded=0;orthogonalLoop=1;jettySize=auto;html=1;entryX=0.5;entryY=0;entryDx=0;entryDy=0;" edge="1" parent="1" source="ALfVOslOlbPku7FaXqLe-167" target="ALfVOslOlbPku7FaXqLe-189">
          <mxGeometry relative="1" as="geometry" />
        </mxCell>
        <mxCell id="ALfVOslOlbPku7FaXqLe-167" value="Declare Drive-able Car Models" style="rounded=0;whiteSpace=wrap;html=1;" vertex="1" parent="1">
          <mxGeometry x="570" y="1680" width="120" height="50" as="geometry" />
        </mxCell>
        <mxCell id="ALfVOslOlbPku7FaXqLe-172" value="Logout" style="text;html=1;align=center;verticalAlign=middle;whiteSpace=wrap;rounded=0;fontSize=16;" vertex="1" parent="1">
          <mxGeometry x="295" y="1360" width="60" height="30" as="geometry" />
        </mxCell>
        <mxCell id="ALfVOslOlbPku7FaXqLe-173" value="Set Addr. Opt" style="text;html=1;align=center;verticalAlign=middle;whiteSpace=wrap;rounded=0;fontSize=16;rotation=91;" vertex="1" parent="1">
          <mxGeometry x="170" y="1530" width="140" height="30" as="geometry" />
        </mxCell>
        <mxCell id="ALfVOslOlbPku7FaXqLe-174" value="List Models Opt." style="text;html=1;align=center;verticalAlign=middle;whiteSpace=wrap;rounded=0;fontSize=16;rotation=90;" vertex="1" parent="1">
          <mxGeometry x="370" y="1550" width="140" height="30" as="geometry" />
        </mxCell>
        <mxCell id="ALfVOslOlbPku7FaXqLe-175" value="Register Model Opt" style="text;html=1;align=center;verticalAlign=middle;whiteSpace=wrap;rounded=0;fontSize=16;rotation=90;" vertex="1" parent="1">
          <mxGeometry x="580" y="1520" width="140" height="30" as="geometry" />
        </mxCell>
        <mxCell id="ALfVOslOlbPku7FaXqLe-181" style="edgeStyle=orthogonalEdgeStyle;rounded=0;orthogonalLoop=1;jettySize=auto;html=1;entryX=0.5;entryY=0;entryDx=0;entryDy=0;" edge="1" parent="1" source="ALfVOslOlbPku7FaXqLe-176" target="ALfVOslOlbPku7FaXqLe-177">
          <mxGeometry relative="1" as="geometry" />
        </mxCell>
        <mxCell id="ALfVOslOlbPku7FaXqLe-176" value="Parse Address" style="rounded=0;whiteSpace=wrap;html=1;" vertex="1" parent="1">
          <mxGeometry x="160" y="1780" width="120" height="60" as="geometry" />
        </mxCell>
        <mxCell id="ALfVOslOlbPku7FaXqLe-186" style="edgeStyle=orthogonalEdgeStyle;rounded=0;orthogonalLoop=1;jettySize=auto;html=1;entryX=0.5;entryY=0;entryDx=0;entryDy=0;" edge="1" parent="1" source="ALfVOslOlbPku7FaXqLe-177" target="ALfVOslOlbPku7FaXqLe-185">
          <mxGeometry relative="1" as="geometry" />
        </mxCell>
        <mxCell id="ALfVOslOlbPku7FaXqLe-177" value="Parse Result?" style="rhombus;whiteSpace=wrap;html=1;" vertex="1" parent="1">
          <mxGeometry x="160" y="1880" width="120" height="120" as="geometry" />
        </mxCell>
        <mxCell id="ALfVOslOlbPku7FaXqLe-182" style="edgeStyle=orthogonalEdgeStyle;rounded=0;orthogonalLoop=1;jettySize=auto;html=1;entryX=0;entryY=1;entryDx=0;entryDy=0;" edge="1" parent="1" source="ALfVOslOlbPku7FaXqLe-178" target="ALfVOslOlbPku7FaXqLe-163">
          <mxGeometry relative="1" as="geometry">
            <Array as="points">
              <mxPoint x="320" y="1810" />
              <mxPoint x="320" y="1443" />
            </Array>
          </mxGeometry>
        </mxCell>
        <mxCell id="ALfVOslOlbPku7FaXqLe-178" value="Print all car models" style="rounded=0;whiteSpace=wrap;html=1;" vertex="1" parent="1">
          <mxGeometry x="360" y="1780" width="120" height="60" as="geometry" />
        </mxCell>
        <mxCell id="ALfVOslOlbPku7FaXqLe-183" value="" style="endArrow=none;html=1;rounded=0;" edge="1" parent="1">
          <mxGeometry width="50" height="50" relative="1" as="geometry">
            <mxPoint x="280" y="1940" as="sourcePoint" />
            <mxPoint x="320" y="1810" as="targetPoint" />
            <Array as="points">
              <mxPoint x="320" y="1940" />
            </Array>
          </mxGeometry>
        </mxCell>
        <mxCell id="ALfVOslOlbPku7FaXqLe-184" value="No" style="text;html=1;align=center;verticalAlign=middle;whiteSpace=wrap;rounded=0;fontSize=16;" vertex="1" parent="1">
          <mxGeometry x="270" y="1910" width="60" height="30" as="geometry" />
        </mxCell>
        <mxCell id="ALfVOslOlbPku7FaXqLe-185" value="Modify Driver Address in Database" style="rounded=0;whiteSpace=wrap;html=1;fontSize=11;" vertex="1" parent="1">
          <mxGeometry x="160" y="2040" width="120" height="60" as="geometry" />
        </mxCell>
        <mxCell id="ALfVOslOlbPku7FaXqLe-187" value="Yes" style="text;html=1;align=center;verticalAlign=middle;whiteSpace=wrap;rounded=0;fontSize=16;" vertex="1" parent="1">
          <mxGeometry x="170" y="2000" width="60" height="30" as="geometry" />
        </mxCell>
        <mxCell id="ALfVOslOlbPku7FaXqLe-188" value="" style="endArrow=none;html=1;rounded=0;exitX=1;exitY=0.5;exitDx=0;exitDy=0;" edge="1" parent="1" source="ALfVOslOlbPku7FaXqLe-185">
          <mxGeometry width="50" height="50" relative="1" as="geometry">
            <mxPoint x="360" y="2080" as="sourcePoint" />
            <mxPoint x="320" y="1890" as="targetPoint" />
            <Array as="points">
              <mxPoint x="320" y="2070" />
            </Array>
          </mxGeometry>
        </mxCell>
        <mxCell id="ALfVOslOlbPku7FaXqLe-193" style="edgeStyle=orthogonalEdgeStyle;rounded=0;orthogonalLoop=1;jettySize=auto;html=1;entryX=0.5;entryY=0;entryDx=0;entryDy=0;" edge="1" parent="1" source="ALfVOslOlbPku7FaXqLe-189" target="ALfVOslOlbPku7FaXqLe-191">
          <mxGeometry relative="1" as="geometry" />
        </mxCell>
        <mxCell id="ALfVOslOlbPku7FaXqLe-189" value="Parse Model" style="rounded=0;whiteSpace=wrap;html=1;" vertex="1" parent="1">
          <mxGeometry x="570" y="1780" width="120" height="60" as="geometry" />
        </mxCell>
        <mxCell id="ALfVOslOlbPku7FaXqLe-194" style="edgeStyle=orthogonalEdgeStyle;rounded=0;orthogonalLoop=1;jettySize=auto;html=1;entryX=1;entryY=1;entryDx=0;entryDy=0;" edge="1" parent="1" source="ALfVOslOlbPku7FaXqLe-191" target="ALfVOslOlbPku7FaXqLe-163">
          <mxGeometry relative="1" as="geometry">
            <Array as="points">
              <mxPoint x="520" y="1940" />
              <mxPoint x="520" y="1443" />
            </Array>
          </mxGeometry>
        </mxCell>
        <mxCell id="ALfVOslOlbPku7FaXqLe-197" style="edgeStyle=orthogonalEdgeStyle;rounded=0;orthogonalLoop=1;jettySize=auto;html=1;entryX=0.5;entryY=0;entryDx=0;entryDy=0;" edge="1" parent="1" source="ALfVOslOlbPku7FaXqLe-191">
          <mxGeometry relative="1" as="geometry">
            <mxPoint x="630" y="2070" as="targetPoint" />
          </mxGeometry>
        </mxCell>
        <mxCell id="ALfVOslOlbPku7FaXqLe-191" value="Parse Result?" style="rhombus;whiteSpace=wrap;html=1;" vertex="1" parent="1">
          <mxGeometry x="570" y="1880" width="120" height="120" as="geometry" />
        </mxCell>
        <mxCell id="ALfVOslOlbPku7FaXqLe-195" value="No" style="text;html=1;align=center;verticalAlign=middle;whiteSpace=wrap;rounded=0;fontSize=16;" vertex="1" parent="1">
          <mxGeometry x="520" y="1910" width="60" height="30" as="geometry" />
        </mxCell>
        <mxCell id="ALfVOslOlbPku7FaXqLe-198" value="Yes" style="text;html=1;align=center;verticalAlign=middle;whiteSpace=wrap;rounded=0;fontSize=16;" vertex="1" parent="1">
          <mxGeometry x="620" y="2020" width="60" height="30" as="geometry" />
        </mxCell>
        <mxCell id="ALfVOslOlbPku7FaXqLe-204" style="edgeStyle=orthogonalEdgeStyle;rounded=0;orthogonalLoop=1;jettySize=auto;html=1;entryX=0.5;entryY=0;entryDx=0;entryDy=0;" edge="1" parent="1" source="ALfVOslOlbPku7FaXqLe-200" target="ALfVOslOlbPku7FaXqLe-203">
          <mxGeometry relative="1" as="geometry" />
        </mxCell>
        <mxCell id="ALfVOslOlbPku7FaXqLe-200" value="Car Model Exists" style="rhombus;whiteSpace=wrap;html=1;" vertex="1" parent="1">
          <mxGeometry x="570" y="2070" width="120" height="120" as="geometry" />
        </mxCell>
        <mxCell id="ALfVOslOlbPku7FaXqLe-201" value="" style="endArrow=none;html=1;rounded=0;exitX=0;exitY=1;exitDx=0;exitDy=0;" edge="1" parent="1" source="ALfVOslOlbPku7FaXqLe-195">
          <mxGeometry width="50" height="50" relative="1" as="geometry">
            <mxPoint x="520" y="2180" as="sourcePoint" />
            <mxPoint x="570" y="2130" as="targetPoint" />
            <Array as="points">
              <mxPoint x="520" y="2130" />
            </Array>
          </mxGeometry>
        </mxCell>
        <mxCell id="ALfVOslOlbPku7FaXqLe-202" value="No" style="text;html=1;align=center;verticalAlign=middle;whiteSpace=wrap;rounded=0;fontSize=16;" vertex="1" parent="1">
          <mxGeometry x="520" y="2100" width="60" height="30" as="geometry" />
        </mxCell>
        <mxCell id="ALfVOslOlbPku7FaXqLe-203" value="Register Drive-able Car Model for Driver" style="rounded=0;whiteSpace=wrap;html=1;fontSize=11;" vertex="1" parent="1">
          <mxGeometry x="570" y="2240" width="120" height="60" as="geometry" />
        </mxCell>
        <mxCell id="ALfVOslOlbPku7FaXqLe-205" value="Yes" style="text;html=1;align=center;verticalAlign=middle;whiteSpace=wrap;rounded=0;fontSize=16;" vertex="1" parent="1">
          <mxGeometry x="620" y="2200" width="60" height="30" as="geometry" />
        </mxCell>
        <mxCell id="ALfVOslOlbPku7FaXqLe-208" value="" style="endArrow=none;html=1;rounded=0;entryX=0;entryY=0.5;entryDx=0;entryDy=0;exitX=0;exitY=1;exitDx=0;exitDy=0;" edge="1" parent="1" source="ALfVOslOlbPku7FaXqLe-202" target="ALfVOslOlbPku7FaXqLe-203">
          <mxGeometry width="50" height="50" relative="1" as="geometry">
            <mxPoint x="490" y="2320" as="sourcePoint" />
            <mxPoint x="540" y="2270" as="targetPoint" />
            <Array as="points">
              <mxPoint x="520" y="2270" />
            </Array>
          </mxGeometry>
        </mxCell>
        <mxCell id="ALfVOslOlbPku7FaXqLe-209" value="Add Car" style="rounded=0;whiteSpace=wrap;html=1;" vertex="1" parent="1">
          <mxGeometry x="-1190" y="2200" width="120" height="60" as="geometry" />
        </mxCell>
        <mxCell id="ALfVOslOlbPku7FaXqLe-210" value="Remove Car" style="rounded=0;whiteSpace=wrap;html=1;" vertex="1" parent="1">
          <mxGeometry x="-572.5" y="2460" width="120" height="60" as="geometry" />
        </mxCell>
        <mxCell id="ALfVOslOlbPku7FaXqLe-211" value="Add Model" style="rounded=0;whiteSpace=wrap;html=1;" vertex="1" parent="1">
          <mxGeometry x="-442.5" y="2460" width="120" height="60" as="geometry" />
        </mxCell>
        <mxCell id="ALfVOslOlbPku7FaXqLe-212" value="Remove Model" style="rounded=0;whiteSpace=wrap;html=1;" vertex="1" parent="1">
          <mxGeometry x="-312.5" y="2460" width="120" height="60" as="geometry" />
        </mxCell>
        <mxCell id="ALfVOslOlbPku7FaXqLe-213" value="Add Driver" style="rounded=0;whiteSpace=wrap;html=1;" vertex="1" parent="1">
          <mxGeometry x="-182.5" y="2460" width="120" height="60" as="geometry" />
        </mxCell>
        <mxCell id="ALfVOslOlbPku7FaXqLe-214" value="Add Driver" style="rounded=0;whiteSpace=wrap;html=1;" vertex="1" parent="1">
          <mxGeometry x="-52.5" y="2460" width="120" height="60" as="geometry" />
        </mxCell>
        <mxCell id="ALfVOslOlbPku7FaXqLe-215" value="&lt;div&gt;Top-K Clients&lt;/div&gt;" style="rounded=0;whiteSpace=wrap;html=1;" vertex="1" parent="1">
          <mxGeometry x="-702.5" y="2550" width="120" height="60" as="geometry" />
        </mxCell>
        <mxCell id="ALfVOslOlbPku7FaXqLe-216" value="All Models and Rents" style="rounded=0;whiteSpace=wrap;html=1;" vertex="1" parent="1">
          <mxGeometry x="-522.5" y="2560" width="120" height="60" as="geometry" />
        </mxCell>
        <mxCell id="ALfVOslOlbPku7FaXqLe-217" value="Driver Stats" style="rounded=0;whiteSpace=wrap;html=1;" vertex="1" parent="1">
          <mxGeometry x="-382.5" y="2560" width="120" height="60" as="geometry" />
        </mxCell>
        <mxCell id="ALfVOslOlbPku7FaXqLe-218" value="Find Clients by City Pair" style="rounded=0;whiteSpace=wrap;html=1;" vertex="1" parent="1">
          <mxGeometry x="-242.5" y="2560" width="120" height="60" as="geometry" />
        </mxCell>
        <mxCell id="ALfVOslOlbPku7FaXqLe-219" value="Problematic Local Drivers" style="rounded=0;whiteSpace=wrap;html=1;" vertex="1" parent="1">
          <mxGeometry x="-102.5" y="2560" width="120" height="60" as="geometry" />
        </mxCell>
        <mxCell id="ALfVOslOlbPku7FaXqLe-220" value="Driver Ratings &amp;amp; Rents by Car Brand" style="rounded=0;whiteSpace=wrap;html=1;" vertex="1" parent="1">
          <mxGeometry x="47.5" y="2560" width="120" height="60" as="geometry" />
        </mxCell>
      </root>
    </mxGraphModel>
  </diagram>
</mxfile>
